<svg xmlns="http://www.w3.org/2000/svg" width="1280" height="640" viewBox="0 0 1280 640">
  <defs>
    <linearGradient id="bg" x1="0" y1="0" x2="1" y2="1">
      <stop offset="0%" stop-color="#1A1B26"/>
      <stop offset="100%" stop-color="#13131B"/>
    </linearGradient>
    <radialGradient id="glow" cx="0.35" cy="0.5" r="0.45">
      <stop offset="0%" stop-color="#7AA2F7" stop-opacity="0.06"/>
      <stop offset="100%" stop-color="#7AA2F7" stop-opacity="0"/>
    </radialGradient>
    <linearGradient id="accentLine" x1="0" y1="0" x2="1" y2="0">
      <stop offset="0%" stop-color="#7AA2F7"/>
      <stop offset="35%" stop-color="#BB9AF7"/>
      <stop offset="70%" stop-color="#9ECE6A"/>
      <stop offset="100%" stop-color="#7AA2F7" stop-opacity="0"/>
    </linearGradient>
    <linearGradient id="iconBg" x1="0" y1="0" x2="0" y2="1">
      <stop offset="0%" stop-color="#1E1F2E"/>
      <stop offset="100%" stop-color="#13131B"/>
    </linearGradient>
    <filter id="shadow" x="-10%" y="-10%" width="120%" height="120%">
      <feDropShadow dx="0" dy="8" stdDeviation="20" flood-color="#000" flood-opacity="0.5"/>
    </filter>
    <pattern id="dots" x="0" y="0" width="40" height="40" patternUnits="userSpaceOnUse">
      <circle cx="20" cy="20" r="0.8" fill="#565F89" opacity="0.3"/>
    </pattern>
  </defs>

  <!-- Background -->
  <rect width="1280" height="640" fill="url(#bg)"/>
  <rect width="1280" height="640" fill="url(#dots)"/>
  <rect width="1280" height="640" fill="url(#glow)"/>

  <!-- Decorative side accents -->
  <rect x="0" y="200" width="3" height="240" rx="1.5" fill="#7AA2F7" opacity="0.4"/>
  <rect x="1277" y="180" width="3" height="280" rx="1.5" fill="#BB9AF7" opacity="0.3"/>

  <!-- App Icon (centered-left) -->
  <g transform="translate(120, 120)" filter="url(#shadow)">
    <!-- Icon background -->
    <rect width="400" height="400" rx="88" fill="url(#iconBg)" stroke="#7AA2F7" stroke-width="2" stroke-opacity="0.4"/>

    <!-- Header bar -->
    <rect x="40" y="45" width="320" height="28" rx="6" fill="#24283B"/>
    <!-- Traffic lights -->
    <circle cx="58" cy="59" r="5" fill="#F7768E"/>
    <circle cx="74" cy="59" r="5" fill="#E0AF68"/>
    <circle cx="90" cy="59" r="5" fill="#9ECE6A"/>
    <!-- URL bar -->
    <rect x="110" y="52" width="180" height="14" rx="7" fill="#1A1B26"/>

    <!-- Panel grid -->
    <!-- Top-left: Services -->
    <rect x="40" y="85" width="155" height="120" rx="8" fill="#1A1B26" stroke="#3B4261" stroke-width="1"/>
    <!-- Status bars -->
    <rect x="55" y="100" width="80" height="6" rx="3" fill="#9ECE6A" opacity="0.8"/>
    <rect x="55" y="114" width="60" height="6" rx="3" fill="#7AA2F7" opacity="0.6"/>
    <rect x="55" y="128" width="90" height="6" rx="3" fill="#9ECE6A" opacity="0.5"/>
    <!-- Mini bar chart -->
    <rect x="55" y="170" width="12" height="25" rx="2" fill="#9ECE6A" opacity="0.6"/>
    <rect x="72" y="160" width="12" height="35" rx="2" fill="#9ECE6A" opacity="0.7"/>
    <rect x="89" y="150" width="12" height="45" rx="2" fill="#9ECE6A" opacity="0.8"/>
    <rect x="106" y="155" width="12" height="40" rx="2" fill="#9ECE6A" opacity="0.9"/>
    <rect x="123" y="145" width="12" height="50" rx="2" fill="#9ECE6A"/>
    <!-- Green status dot -->
    <circle cx="175" cy="102" r="4" fill="#9ECE6A"/>

    <!-- Top-right: Terminal/Code -->
    <rect x="205" y="85" width="155" height="120" rx="8" fill="#1A1B26" stroke="#7AA2F7" stroke-width="1.5"/>
    <!-- Angle brackets < /> -->
    <g transform="translate(250, 120)" fill="none" stroke="#7AA2F7" stroke-width="3.5" stroke-linecap="round" stroke-linejoin="round">
      <polyline points="-15,20 -30,0 -15,-20"/>
      <polyline points="15,20 30,0 15,-20"/>
      <line x1="-6" y1="22" x2="6" y2="-22" stroke-width="2.5"/>
    </g>
    <!-- Blinking cursor -->
    <rect x="298" y="170" width="8" height="16" rx="1" fill="#7AA2F7" opacity="0.9"/>

    <!-- Bottom-left: Logs -->
    <rect x="40" y="215" width="155" height="120" rx="8" fill="#1A1B26" stroke="#3B4261" stroke-width="1"/>
    <!-- Log lines -->
    <circle cx="56" cy="235" r="3" fill="#BB9AF7"/>
    <rect x="66" y="232" width="70" height="6" rx="3" fill="#3B4261"/>
    <rect x="142" y="232" width="30" height="6" rx="3" fill="#565F89"/>
    <circle cx="56" cy="252" r="3" fill="#7AA2F7"/>
    <rect x="66" y="249" width="55" height="6" rx="3" fill="#3B4261"/>
    <rect x="127" y="249" width="45" height="6" rx="3" fill="#565F89"/>
    <circle cx="56" cy="269" r="3" fill="#9ECE6A"/>
    <rect x="66" y="266" width="85" height="6" rx="3" fill="#3B4261"/>
    <circle cx="56" cy="286" r="3" fill="#F7768E"/>
    <rect x="66" y="283" width="60" height="6" rx="3" fill="#3B4261"/>
    <rect x="132" y="283" width="40" height="6" rx="3" fill="#565F89"/>
    <circle cx="56" cy="303" r="3" fill="#7AA2F7"/>
    <rect x="66" y="300" width="75" height="6" rx="3" fill="#3B4261"/>
    <circle cx="56" cy="320" r="3" fill="#BB9AF7"/>
    <rect x="66" y="317" width="45" height="6" rx="3" fill="#3B4261"/>

    <!-- Bottom-right: Ports -->
    <rect x="205" y="215" width="155" height="120" rx="8" fill="#1A1B26" stroke="#3B4261" stroke-width="1"/>
    <!-- Port tiles -->
    <rect x="215" y="228" width="42" height="30" rx="4" fill="#24283B" stroke="#9ECE6A" stroke-width="1" stroke-opacity="0.6"/>
    <rect x="262" y="228" width="42" height="30" rx="4" fill="#24283B" stroke="#7AA2F7" stroke-width="1" stroke-opacity="0.6"/>
    <rect x="309" y="228" width="42" height="30" rx="4" fill="#24283B" stroke="#BB9AF7" stroke-width="1" stroke-opacity="0.6"/>
    <rect x="215" y="265" width="42" height="30" rx="4" fill="#24283B" stroke="#E0AF68" stroke-width="1" stroke-opacity="0.6"/>
    <rect x="262" y="265" width="42" height="30" rx="4" fill="#24283B" stroke="#F7768E" stroke-width="1" stroke-opacity="0.6"/>
    <rect x="309" y="265" width="42" height="30" rx="4" fill="#24283B" stroke="#7DCFFF" stroke-width="1" stroke-opacity="0.6"/>
    <rect x="215" y="302" width="42" height="30" rx="4" fill="#24283B" stroke="#9ECE6A" stroke-width="1" stroke-opacity="0.4"/>
    <rect x="262" y="302" width="42" height="30" rx="4" fill="#24283B" stroke="#565F89" stroke-width="1" stroke-opacity="0.4"/>
    <rect x="309" y="302" width="42" height="30" rx="4" fill="#24283B" stroke="#565F89" stroke-width="1" stroke-opacity="0.4"/>

    <!-- Bottom dock bar -->
    <rect x="40" y="348" width="320" height="36" rx="8" fill="#16161E"/>
    <circle cx="100" cy="366" r="8" fill="none" stroke="#565F89" stroke-width="1.5"/>
    <circle cx="160" cy="366" r="8" fill="none" stroke="#565F89" stroke-width="1.5"/>
    <circle cx="220" cy="366" r="8" fill="#7AA2F7" opacity="0.3" stroke="#7AA2F7" stroke-width="1.5"/>
    <circle cx="280" cy="366" r="8" fill="none" stroke="#565F89" stroke-width="1.5"/>
  </g>

  <!-- Text area: "DevDock" as paths (no font dependency) -->
  <!-- Using geometric letterforms -->
  <g transform="translate(590, 210)">
    <!-- D -->
    <path d="M0,0 L0,80 L35,80 C65,80 80,62 80,40 C80,18 65,0 35,0 Z M18,16 L33,16 C52,16 62,26 62,40 C62,54 52,64 33,64 L18,64 Z" fill="#C0CAF5"/>
    <!-- e -->
    <path d="M100,28 C100,12 112,0 130,0 C148,0 160,12 160,28 L160,44 L118,44 C119,56 126,62 136,62 C144,62 150,58 153,52 L159,62 C154,70 145,76 134,76 C112,76 100,62 100,50 Z M118,34 L143,34 C143,22 138,14 130,14 C122,14 118,22 118,34 Z" fill="#C0CAF5"/>
    <!-- v -->
    <path d="M172,2 L200,76 L228,2 L246,2 L208,80 L192,80 L154,2 Z" fill="#C0CAF5"/>
    <!-- D -->
    <path d="M260,0 L260,80 L295,80 C325,80 340,62 340,40 C340,18 325,0 295,0 Z M278,16 L293,16 C312,16 322,26 322,40 C322,54 312,64 293,64 L278,64 Z" fill="#7AA2F7"/>
    <!-- o -->
    <path d="M360,40 C360,18 374,0 396,0 C418,0 432,18 432,40 C432,62 418,80 396,80 C374,80 360,62 360,40 Z M378,40 C378,56 386,66 396,66 C406,66 414,56 414,40 C414,24 406,14 396,14 C386,14 378,24 378,40 Z" fill="#7AA2F7"/>
    <!-- c -->
    <path d="M450,40 C450,18 464,0 486,0 C500,0 510,8 516,18 L504,28 C500,20 494,14 486,14 C474,14 468,24 468,40 C468,56 474,66 486,66 C494,66 500,60 504,52 L516,62 C510,72 500,80 486,80 C464,80 450,62 450,40 Z" fill="#7AA2F7"/>
    <!-- k -->
    <path d="M530,0 L530,80 L548,80 L548,52 L554,44 L582,80 L604,80 L568,34 L600,0 L578,0 L548,36 L548,0 Z" fill="#7AA2F7"/>
  </g>

  <!-- Accent underline -->
  <rect x="590" y="310" width="400" height="3" rx="1.5" fill="url(#accentLine)"/>

  <!-- Tagline -->
  <g transform="translate(590, 340)">
    <!-- "The Local Development Command Center" as simple geometric text -->
    <!-- T -->
    <path d="M0,0 L24,0 L24,3 L14,3 L14,20 L10,20 L10,3 L0,3 Z" fill="#565F89"/>
    <!-- h -->
    <path d="M28,0 L32,0 L32,7 C34,5 37,4 40,4 C46,4 48,8 48,12 L48,20 L44,20 L44,12 C44,9 43,7 40,7 C37,7 34,9 32,11 L32,20 L28,20 Z" fill="#565F89"/>
    <!-- e -->
    <path d="M52,12 C52,8 55,4 60,4 C65,4 68,8 68,12 L68,14 L56,14 C56,17 58,19 61,19 C63,19 65,18 66,16 L68,18 C66,20 64,21 61,21 C55,21 52,17 52,14 Z M56,12 L64,12 C64,9 62,7 60,7 C58,7 56,9 56,12 Z" fill="#565F89"/>
    <!-- L -->
    <path d="M80,0 L84,0 L84,17 L96,17 L96,20 L80,20 Z" fill="#A9B1D6"/>
    <!-- o -->
    <path d="M100,12 C100,7 104,4 108,4 C112,4 116,7 116,12 C116,17 112,21 108,21 C104,21 100,17 100,12 Z M104,12 C104,16 106,19 108,19 C110,19 112,16 112,12 C112,8 110,7 108,7 C106,7 104,8 104,12 Z" fill="#A9B1D6"/>
    <!-- c -->
    <path d="M120,12 C120,7 124,4 128,4 C131,4 133,6 134,8 L132,10 C131,8 130,7 128,7 C126,7 124,9 124,12 C124,16 126,19 128,19 C130,19 131,18 132,16 L134,18 C133,20 131,21 128,21 C124,21 120,17 120,12 Z" fill="#A9B1D6"/>
    <!-- a -->
    <path d="M138,12 C138,8 141,4 146,4 C148,4 150,5 151,6 L151,5 L155,5 L155,20 L151,20 L151,19 C150,20 148,21 146,21 C141,21 138,17 138,12 Z M142,12 C142,16 144,19 147,19 C149,19 151,17 151,15 L151,10 C151,8 149,7 147,7 C144,7 142,9 142,12 Z" fill="#A9B1D6"/>
    <!-- l -->
    <path d="M160,0 L164,0 L164,20 L160,20 Z" fill="#A9B1D6"/>
    <!-- D -->
    <path d="M180,0 L180,20 L189,20 C196,20 200,16 200,10 C200,4 196,0 189,0 Z M184,3 L188,3 C194,3 196,6 196,10 C196,14 194,17 188,17 L184,17 Z" fill="#A9B1D6"/>
    <!-- e -->
    <path d="M204,12 C204,8 207,4 212,4 C217,4 220,8 220,12 L220,14 L208,14 C208,17 210,19 213,19 C215,19 217,18 218,16 L220,18 C218,20 216,21 213,21 C207,21 204,17 204,14 Z M208,12 L216,12 C216,9 214,7 212,7 C210,7 208,9 208,12 Z" fill="#A9B1D6"/>
    <!-- v -->
    <path d="M222,5 L230,20 L238,5 L242,5 L232,21 L228,21 L218,5 Z" fill="#A9B1D6"/>
    <!-- e -->
    <path d="M244,12 C244,8 247,4 252,4 C257,4 260,8 260,12 L260,14 L248,14 C248,17 250,19 253,19 C255,19 257,18 258,16 L260,18 C258,20 256,21 253,21 C247,21 244,17 244,14 Z M248,12 L256,12 C256,9 254,7 252,7 C250,7 248,9 248,12 Z" fill="#A9B1D6"/>
    <!-- l -->
    <path d="M264,0 L268,0 L268,20 L264,20 Z" fill="#A9B1D6"/>
    <!-- o -->
    <path d="M272,12 C272,7 276,4 280,4 C284,4 288,7 288,12 C288,17 284,21 280,21 C276,21 272,17 272,12 Z M276,12 C276,16 278,19 280,19 C282,19 284,16 284,12 C284,8 282,7 280,7 C278,7 276,8 276,12 Z" fill="#A9B1D6"/>
    <!-- p -->
    <path d="M292,5 L296,5 L296,6 C297,5 299,4 301,4 C306,4 309,8 309,12 C309,17 306,21 301,21 C299,21 297,20 296,19 L296,28 L292,28 Z M296,10 L296,15 C296,17 298,19 300,19 C303,19 305,16 305,12 C305,9 303,7 300,7 C298,7 296,8 296,10 Z" fill="#A9B1D6"/>
    <!-- m -->
    <path d="M313,5 L317,5 L317,7 C318,5 321,4 323,4 C326,4 328,5 329,7 C330,5 333,4 336,4 C340,4 342,7 342,11 L342,20 L338,20 L338,12 C338,9 337,7 335,7 C333,7 331,8 330,10 L330,20 L326,20 L326,12 C326,9 325,7 323,7 C321,7 319,8 318,10 L318,20 L313,20 Z" fill="#A9B1D6"/>
    <!-- e -->
    <path d="M348,12 C348,8 351,4 356,4 C361,4 364,8 364,12 L364,14 L352,14 C352,17 354,19 357,19 C359,19 361,18 362,16 L364,18 C362,20 360,21 357,21 C351,21 348,17 348,14 Z M352,12 L360,12 C360,9 358,7 356,7 C354,7 352,9 352,12 Z" fill="#A9B1D6"/>
    <!-- n -->
    <path d="M368,5 L372,5 L372,7 C374,5 376,4 379,4 C384,4 386,7 386,11 L386,20 L382,20 L382,12 C382,9 381,7 378,7 C376,7 374,8 372,10 L372,20 L368,20 Z" fill="#A9B1D6"/>
    <!-- t -->
    <path d="M392,0 L396,0 L396,5 L402,5 L402,8 L396,8 L396,16 C396,18 397,19 399,19 L402,19 L402,21 C401,21 399,21 398,21 C394,21 392,19 392,15 L392,8 L388,8 L388,5 L392,5 Z" fill="#A9B1D6"/>
    <!-- C -->
    <path d="M420,10 C420,4 424,0 430,0 C434,0 437,2 438,5 L435,7 C434,5 432,3 430,3 C426,3 424,6 424,10 C424,14 426,17 430,17 C432,17 434,16 435,13 L438,15 C437,18 434,20 430,20 C424,20 420,16 420,10 Z" fill="#A9B1D6"/>
    <!-- o -->
    <path d="M442,12 C442,7 446,4 450,4 C454,4 458,7 458,12 C458,17 454,21 450,21 C446,21 442,17 442,12 Z M446,12 C446,16 448,19 450,19 C452,19 454,16 454,12 C454,8 452,7 450,7 C448,7 446,8 446,12 Z" fill="#A9B1D6"/>
    <!-- m -->
    <path d="M462,5 L466,5 L466,7 C467,5 470,4 472,4 C475,4 477,5 478,7 C479,5 482,4 485,4 C489,4 491,7 491,11 L491,20 L487,20 L487,12 C487,9 486,7 484,7 C482,7 480,8 479,10 L479,20 L475,20 L475,12 C475,9 474,7 472,7 C470,7 468,8 467,10 L467,20 L462,20 Z" fill="#A9B1D6"/>
  </g>

  <!-- Feature pills -->
  <g transform="translate(590, 400)">
    <circle cx="8" cy="8" r="5" fill="#9ECE6A"/>
    <rect x="20" y="2" width="65" height="13" rx="6.5" fill="#24283B"/>

    <circle cx="108" cy="8" r="5" fill="#7AA2F7"/>
    <rect x="120" y="2" width="45" height="13" rx="6.5" fill="#24283B"/>

    <circle cx="188" cy="8" r="5" fill="#BB9AF7"/>
    <rect x="200" y="2" width="40" height="13" rx="6.5" fill="#24283B"/>

    <circle cx="263" cy="8" r="5" fill="#F7768E"/>
    <rect x="275" y="2" width="50" height="13" rx="6.5" fill="#24283B"/>

    <circle cx="348" cy="8" r="5" fill="#E0AF68"/>
    <rect x="360" y="2" width="55" height="13" rx="6.5" fill="#24283B"/>
  </g>

  <!-- Version badge -->
  <rect x="590" y="440" width="50" height="20" rx="10" fill="#24283B" stroke="#3B4261" stroke-width="1"/>

  <!-- Decorative floating elements -->
  <circle cx="1100" cy="150" r="3" fill="#7AA2F7" opacity="0.4"/>
  <circle cx="1150" cy="200" r="2" fill="#BB9AF7" opacity="0.3"/>
  <circle cx="1080" cy="350" r="2.5" fill="#9ECE6A" opacity="0.3"/>
  <circle cx="1200" cy="400" r="2" fill="#F7768E" opacity="0.25"/>
  <circle cx="1050" cy="480" r="3" fill="#7AA2F7" opacity="0.2"/>
</svg>
